<?xml version="1.0" encoding="utf-8"?><svg xmlns="http://www.w3.org/2000/svg" xmlns:xlink="http://www.w3.org/1999/xlink"><symbol viewBox="0 0 16 10" id="icon-behance" xmlns="http://www.w3.org/2000/svg"><path d="M11.226 4.315c.27-.273.65-.41 1.138-.41.45 0 .826.129 1.132.386.302.259.473.635.507 1.133h-3.285c.07-.467.24-.836.508-1.11zM4.372 8.06h-2.4v-2.6h2.434c.423.003.753.06.988.165.42.19.63.539.63 1.047 0 .6-.217 1.004-.65 1.218-.239.114-.574.171-1.002.171zm5.852-6.383h4.237V.455h-4.237zm3.863 1.01c-.51-.226-1.082-.34-1.72-.34-1.07 0-1.94.336-2.613 1.001-.671.668-1.007 1.627-1.007 2.877 0 1.332.37 2.296 1.117 2.887.742.592 1.6.887 2.575.887 1.178 0 2.095-.35 2.75-1.052.42-.441.657-.877.708-1.303h-1.952a1.578 1.578 0 0 1-.394.496c-.272.22-.626.33-1.06.33-.412 0-.763-.09-1.054-.271-.482-.291-.734-.799-.766-1.522h5.327c.009-.622-.012-1.101-.064-1.432a3.486 3.486 0 0 0-.584-1.491 2.942 2.942 0 0 0-1.263-1.067zm-9.964-.994c.474 0 .863.051 1.17.153.353.147.53.448.53.906 0 .41-.134.697-.401.86-.27.162-.618.243-1.047.243H1.971V1.694zm3.214 2.27c.305-.361.457-.841.457-1.436 0-.578-.152-1.074-.453-1.489C6.838.364 5.984.018 4.778 0H0v9.754h4.455c.503 0 .967-.043 1.397-.13a2.74 2.74 0 0 0 1.117-.491c.28-.208.514-.464.7-.767.295-.459.441-.978.441-1.556 0-.56-.129-1.037-.385-1.43-.258-.392-.639-.678-1.143-.86.332-.167.584-.353.755-.555z"/></symbol><symbol viewBox="0 0 16 16" id="icon-calendar" xmlns="http://www.w3.org/2000/svg"><path d="M12.192 7.624a.762.762 0 1 0 0-1.524.762.762 0 0 0 0 1.524z"/><path d="M13.5 1.25h-.813V.625a.625.625 0 1 0-1.25 0v.625H8.595V.625a.625.625 0 1 0-1.25 0v.625H4.53V.625a.625.625 0 1 0-1.25 0v.625H2.5A2.503 2.503 0 0 0 0 3.75v9.75C0 14.879 1.121 16 2.5 16h4.781a.625.625 0 1 0 0-1.25H2.5c-.69 0-1.25-.56-1.25-1.25V3.75c0-.69.56-1.25 1.25-1.25h.781v.625a.625.625 0 1 0 1.25 0V2.5h2.813v.625a.625.625 0 1 0 1.25 0V2.5h2.844v.625a.625.625 0 1 0 1.25 0V2.5h.812c.69 0 1.25.56 1.25 1.25v3.563a.625.625 0 1 0 1.25 0V3.75c0-1.379-1.121-2.5-2.5-2.5z"/><path d="M12.19 14.74a2.553 2.553 0 0 1-2.55-2.55 2.553 2.553 0 0 1 2.55-2.55 2.553 2.553 0 0 1 2.55 2.55 2.553 2.553 0 0 1-2.55 2.55zm0-6.36a3.814 3.814 0 0 0-3.81 3.81c0 2.1 1.709 3.81 3.81 3.81 2.1 0 3.809-1.71 3.809-3.81a3.814 3.814 0 0 0-3.81-3.81z"/><path d="M13.053 11.827h-.298v-.593c0-.311-.297-.564-.662-.564-.366 0-.663.253-.663.564v1.157c0 .312.297.565.663.565h.96c.366 0 .663-.253.663-.565 0-.311-.297-.564-.663-.564zM9.142 7.624a.762.762 0 1 0 0-1.524.762.762 0 0 0 0 1.524zm-2.28 2.28a.762.762 0 1 0 0-1.524.762.762 0 0 0 0 1.524zm-3.05-2.28a.762.762 0 1 0 0-1.524.762.762 0 0 0 0 1.524zm0 2.28a.762.762 0 1 0 0-1.524.762.762 0 0 0 0 1.524zm0 3.05a.762.762 0 1 0 0-1.524.762.762 0 0 0 0 1.524zm3.05 0a.762.762 0 1 0 0-1.524.762.762 0 0 0 0 1.524zm0-5.33a.762.762 0 1 0 0-1.524.762.762 0 0 0 0 1.524z"/></symbol><symbol viewBox="0 0 26 21" id="icon-camera" xmlns="http://www.w3.org/2000/svg"><path d="M24.62 17.913h-.025c0 .433-.173.817-.469 1.105-.296.288-.69.456-1.134.456H2.872c-.443 0-.838-.168-1.134-.456a1.522 1.522 0 0 1-.468-1.105V5.954c0-.432.172-.816.468-1.104.296-.288.69-.456 1.135-.456H7.63c.37 0 .666-.289.666-.649V3.05a.93.93 0 0 1 .271-.673.983.983 0 0 1 .69-.264h7.373c.271 0 .518.096.69.264a.93.93 0 0 1 .271.673v.696c0 .36.296.649.666.649h4.759c.444 0 .838.168 1.134.456.296.288.468.672.468 1.104zm.419-13.953a2.826 2.826 0 0 0-2.047-.84H18.9v-.048c0-.6-.246-1.176-.666-1.56a2.287 2.287 0 0 0-1.602-.648H9.234c-.641 0-1.208.24-1.627.648-.42.408-.666.96-.666 1.56v.048H2.873c-.814 0-1.53.312-2.047.84-.518.504-.863 1.224-.863 1.993v11.953c0 .792.32 1.488.863 1.992.518.504 1.258.84 2.047.84h20.12c.813 0 1.528-.312 2.046-.84.517-.504.863-1.224.863-1.992V5.953a2.68 2.68 0 0 0-.863-1.993z"/><path d="M16.265 15.424a4.846 4.846 0 0 1-3.329 1.336 4.846 4.846 0 0 1-3.329-1.336 4.506 4.506 0 0 1-1.37-3.246c0-1.266.538-2.411 1.37-3.247a4.74 4.74 0 0 1 3.329-1.336 4.85 4.85 0 0 1 3.329 1.336 4.506 4.506 0 0 1 1.37 3.247c.025 1.265-.513 2.41-1.37 3.246zm-3.329-9.142A6.11 6.11 0 0 0 8.677 8a5.753 5.753 0 0 0-1.762 4.154 5.81 5.81 0 0 0 1.762 4.153 6.05 6.05 0 0 0 4.259 1.718 6.11 6.11 0 0 0 4.26-1.718 5.753 5.753 0 0 0 1.761-4.153A5.81 5.81 0 0 0 17.195 8a6.11 6.11 0 0 0-4.259-1.718zM21.5 8.54c.64 0 1.158-.505 1.158-1.129s-.518-1.13-1.158-1.13c-.64 0-1.158.506-1.158 1.13 0 .624.519 1.13 1.158 1.13z"/></symbol><symbol viewBox="0 0 32 24" id="icon-cloud" xmlns="http://www.w3.org/2000/svg"><g opacity=".4"><path d="M23.397 20.307h-.406s-1.403 2.642-4.798 2.642c-2.9 0-4.416-2.088-4.416-2.088s-1.58 2.088-4.417 2.088c-3.37 0-4.791-2.636-4.791-2.636l-.235-.026c-1.878-.18-3.293-1.76-3.293-3.68 0-3.107 3.128-3.68 3.128-3.68s-.006-.478-.013-.549c0-3.783 3.034-6.864 6.759-6.864 2.094 0 4.036.967 5.33 2.655l.229.297s.818-.361 1.72-.361c2.315 0 4.206 1.914 4.206 4.273v.529h.997c2.005 0 3.642 1.657 3.642 3.7s-1.637 3.7-3.642 3.7zm.52-16.256c2.227 0 4.042 1.843 4.042 4.106 0 1.856-1.256 3.5-3.014 3.97a4.448 4.448 0 0 0-1.53-.27c-.196-2.05-1.548-3.804-3.464-4.487.362-1.92 1.999-3.32 3.966-3.32zm2.234 8.734A5.2 5.2 0 0 0 29 8.163C29 5.314 26.722 3 23.917 3c-2.45 0-4.493 1.734-4.975 4.112-.844-.16-1.656.007-2.1.13a7.678 7.678 0 0 0-5.921-2.779c-4.22 0-7.666 3.416-7.793 7.67C1.263 12.792 0 14.584 0 16.608c0 2.385 1.7 4.364 3.998 4.699C5.273 22.994 7.26 24 9.36 24a6.65 6.65 0 0 0 4.417-1.67A6.63 6.63 0 0 0 18.193 24c2.075 0 4.042-.98 5.324-2.643 2.526-.064 4.557-2.172 4.557-4.75a4.735 4.735 0 0 0-1.923-3.822z" opacity=".4"/><path d="M6 12h1.001A4.005 4.005 0 0 1 11 8.001V7c-2.753 0-5 2.24-5 5zM23 0h1v3h-1zm-2.543 1.754l.956-.4.612 1.49-.954.4zM30.582 5L29 5.782 29.424 7 31 6.218zm-13.992.825l.396-.962 1.479.617-.396.962zm11.402 5.456l.395-.962 1.484.62-.395.962zm-2.018-8.29l.613-1.489.955.398-.613 1.49zm1.77 1.152l1.885-1.899.73.736-1.884 1.899zM29 8h3v1h-3zm-1.855 4.683l.731-.737 1.885 1.898-.731.737zm-9.613-9.718l.731-.736 1.89 1.903-.732.737z" opacity=".4"/></g></symbol><symbol viewBox="0 0 16 16" id="icon-dribbble" xmlns="http://www.w3.org/2000/svg"><path d="M9.924 7.356a20.562 20.562 0 0 0-.454-.991c2.698-1.102 3.793-2.685 3.806-2.704a6.806 6.806 0 0 1 1.555 4.27c-.1-.02-2.412-.518-4.76-.223a20.355 20.355 0 0 0-.147-.352zm.564 1.43c2.206-.352 4.117.253 4.258.3a6.834 6.834 0 0 1-2.928 4.58c-.07-.412-.434-2.417-1.33-4.88zm-6.753 4.55l.065.05s1.31-2.856 5.362-4.268c.016-.006.031-.01.046-.014a28.442 28.442 0 0 1 1.46 5.187A6.807 6.807 0 0 1 8 14.833a6.804 6.804 0 0 1-4.265-1.497zM1.167 8c0-.072.004-.144.006-.215.121.003 3.497.08 7.015-.975.195.383.383.774.554 1.163-.09.025-.18.052-.27.082-3.686 1.193-5.557 4.516-5.557 4.516l.003.003A6.823 6.823 0 0 1 1.168 8zm6.455-2.243c-3.28.872-6.128.837-6.308.834a6.834 6.834 0 0 1 3.77-4.77 40.88 40.88 0 0 1 2.538 3.936zm-1.26-4.39s-.008.003-.02.004a.098.098 0 0 0 .022-.005l-.002.002zm6.15 1.506c-.017.025-.99 1.507-3.569 2.473A34.804 34.804 0 0 0 6.39 1.36a6.83 6.83 0 0 1 6.122 1.513zm2.121.654A8 8 0 0 0 6.39.164a8.05 8.05 0 0 0-1.504.465A8.037 8.037 0 0 0 .63 4.886a7.988 7.988 0 0 0 .738 7.588c.286.424.614.82.975 1.184A8 8 0 0 0 8 16a7.97 7.97 0 0 0 1.611-.164 7.88 7.88 0 0 0 2.862-1.203 8.164 8.164 0 0 0 1.185-.975c.36-.364.69-.76.975-1.184a7.983 7.983 0 0 0 0-8.946z"/></symbol><symbol viewBox="0 0 20 12" id="icon-eye" xmlns="http://www.w3.org/2000/svg"><path d="M10 10.724c-4.005 0-7.474-3.565-8.5-4.73C2.524 4.828 5.985 1.265 10 1.265c4.005 0 7.473 3.564 8.5 4.73-1.025 1.166-4.486 4.729-8.5 4.729zm9.873-5.089C19.694 5.406 15.437.03 10 .03 4.563.03.305 5.406.127 5.635a.587.587 0 0 0 0 .729c.178.229 4.436 5.605 9.873 5.605 5.437 0 9.694-5.376 9.873-5.605a.586.586 0 0 0 0-.729z"/><path d="M9.996 8.464c-1.453 0-2.636-1.108-2.636-2.469 0-1.36 1.183-2.468 2.636-2.468s2.636 1.107 2.636 2.468-1.183 2.469-2.636 2.469zm0-6.174c-2.181 0-3.956 1.662-3.956 3.705S7.815 9.7 9.996 9.7s3.956-1.662 3.956-3.705S12.177 2.29 9.996 2.29z"/></symbol><symbol viewBox="0 0 16 16" id="icon-facebook" xmlns="http://www.w3.org/2000/svg"><path d="M16 15.117a.883.883 0 0 1-.883.883H11.04V9.804h2.08l.311-2.415H11.04V5.847c0-.699.194-1.175 1.197-1.175h1.278v-2.16a16.95 16.95 0 0 0-1.863-.095c-1.844 0-3.106 1.125-3.106 3.192v1.78H6.461v2.415h2.085V16H.883A.883.883 0 0 1 0 15.117V.883C0 .395.395 0 .883 0h14.234c.488 0 .883.395.883.883v14.234"/></symbol><symbol viewBox="0 0 9 13" id="icon-facebook-mono" xmlns="http://www.w3.org/2000/svg"><path d="M8.33.162L6.47.16c-2.09 0-3.442 1.25-3.442 3.184V4.81h-1.87c-.162 0-.293.119-.293.264v2.127c0 .146.131.264.293.264h1.87v5.365c0 .146.131.264.293.264h2.441c.162 0 .293-.118.293-.264V7.465h2.187c.162 0 .293-.118.293-.264V5.074c0-.07-.03-.137-.085-.186a.31.31 0 0 0-.207-.078H6.055V3.566c0-.598.158-.901 1.022-.901H8.33c.162 0 .293-.119.293-.265V.426c0-.146-.131-.264-.292-.264z"/></symbol><symbol viewBox="0 0 18 11" id="icon-gplus" xmlns="http://www.w3.org/2000/svg"><path d="M5.717 4.41h5.49c.383 2.637-.77 6.59-5.49 6.59C2.56 11 0 8.537 0 5.5 0 2.462 2.56 0 5.717 0 7.2 0 8.548.542 9.564 1.431 8.368 2.518 8.407 2.583 7.937 3.035c-.588-.467-1.228-.802-2.22-.802-1.876 0-3.34 1.463-3.34 3.267 0 1.804 1.464 3.267 3.34 3.267 1.854 0 2.607-.769 3.091-2.18l-3.09.002V4.411m10.301.109H18v1.36h-1.981v1.96h-1.415V5.88h-2.038V4.52h2.038V2.614h1.415V4.52"/></symbol><symbol viewBox="0 0 23 22" id="icon-home" xmlns="http://www.w3.org/2000/svg"><path d="M18.069 19.035a.762.762 0 0 1-.762.763h-3.049v-6.863H8.162v6.863H5.113a.762.762 0 0 1-.762-.763V8.048l6.318-6.329a.762.762 0 0 1 1.082 0l6.318 6.329zm-8.383.763v-5.345h3.038v5.345zM12.826.645a2.347 2.347 0 0 0-3.232 0L0 10.23l1.082 1.082 1.745-1.745v9.458a2.286 2.286 0 0 0 2.286 2.286h12.194a2.286 2.286 0 0 0 2.286-2.286V9.568l1.745 1.745 1.082-1.082z"/></symbol><symbol viewBox="0 0 16 16" id="icon-instagram" xmlns="http://www.w3.org/2000/svg"><path d="M14 14.5H2a.5.5 0 0 1-.5-.5V6.5h2c-.26.375-.349 1.074-.349 1.519 0 2.677 2.184 4.855 4.868 4.855 2.683 0 4.867-2.178 4.867-4.855 0-.445-.063-1.133-.386-1.52h2V14a.5.5 0 0 1-.5.501zm-2.894-6.48c0 1.695-1.38 3.07-3.082 3.07a3.076 3.076 0 0 1-3.082-3.07c0-1.695 1.38-3.07 3.082-3.07a3.076 3.076 0 0 1 3.082 3.07zM12 2h1.5a.5.5 0 0 1 .5.5V4a.5.5 0 0 1-.5.5H12a.5.5 0 0 1-.5-.5V2.5A.5.5 0 0 1 12 2zM1.902 0A1.9 1.9 0 0 0 0 1.897v12.206A1.9 1.9 0 0 0 1.902 16h12.196A1.9 1.9 0 0 0 16 14.103V1.896A1.9 1.9 0 0 0 14.098 0z"/></symbol><symbol viewBox="0 0 13 13" id="icon-instagram-2" xmlns="http://www.w3.org/2000/svg"><path d="M8.677 6.505a2.172 2.172 0 1 1-4.343 0 2.172 2.172 0 0 1 4.343 0zM6.5 3.162a3.338 3.338 0 1 0 0 6.676 3.338 3.338 0 0 0 0-6.676zm3.47-.911a.78.78 0 1 0 0 1.56.78.78 0 0 0 0-1.56zM5.917 1.17h.584c1.735 0 1.94.007 2.626.038.634.029.978.135 1.207.224.303.117.52.258.747.486.227.227.368.444.486.747.09.23.195.573.224 1.207.031.685.038.89.038 2.626 0 1.734-.007 1.94-.038 2.625-.029.634-.135.978-.224 1.207a2.01 2.01 0 0 1-.486.746 2.01 2.01 0 0 1-.747.487c-.229.089-.573.195-1.207.224-.685.03-.89.038-2.626.038-1.736 0-1.942-.007-2.627-.038-.634-.03-.978-.136-1.207-.225a2.013 2.013 0 0 1-.747-.486 2.015 2.015 0 0 1-.487-.747c-.089-.229-.195-.573-.224-1.206-.03-.686-.037-.891-.037-2.627 0-1.736.006-1.94.037-2.626.03-.634.135-.978.224-1.207.118-.303.259-.52.487-.747.227-.228.444-.369.747-.487.23-.089.573-.195 1.207-.224.6-.027.832-.035 2.043-.036zM6.5 0h.002zM3.82.04c-.692.03-1.164.14-1.577.3a3.18 3.18 0 0 0-1.152.75 3.19 3.19 0 0 0-.75 1.151C.18 2.656.071 3.128.04 3.82.01 4.513 0 4.735 0 6.5c0 1.765.008 1.986.04 2.68.031.691.14 1.164.301 1.577.166.428.388.79.75 1.152a3.19 3.19 0 0 0 1.151.75c.414.16.886.27 1.578.302.693.031.915.039 2.68.039 1.765 0 1.986-.008 2.68-.04.691-.031 1.164-.14 1.578-.301a3.18 3.18 0 0 0 1.15-.75 3.19 3.19 0 0 0 .75-1.152c.16-.413.27-.886.303-1.577.03-.694.039-.915.039-2.68 0-1.765-.008-1.987-.04-2.68-.032-.692-.141-1.164-.301-1.578a3.19 3.19 0 0 0-.75-1.151 3.177 3.177 0 0 0-1.152-.75C10.343.181 9.87.071 9.18.04 8.485.008 8.265 0 6.499 0 4.736 0 4.515.008 3.82.04z" opacity=".5"/></symbol><symbol viewBox="0 0 16 15" id="icon-lin" xmlns="http://www.w3.org/2000/svg"><path d="M.403 4.81h3.119V15H.403zm11.64-.098C14.258 4.712 16 6.178 16 9.334V15h-3.536V9.727c0-1.38-.553-2.322-1.77-2.322-.93 0-1.447.635-1.688 1.248-.09.22-.077.527-.077.833V15H5.426s.045-9.34 0-10.19H8.93v1.6c.207-.7 1.327-1.698 3.113-1.698M1.905 0c1.15 0 1.858.76 1.88 1.766 0 .988-.73 1.77-1.902 1.77h-.022C.732 3.536 0 2.756 0 1.769 0 .763.753 0 1.905 0"/></symbol><symbol viewBox="0 0 16 16" id="icon-link" xmlns="http://www.w3.org/2000/svg"><g opacity=".6"><path d="M14.838.35H9.33a.689.689 0 0 0 0 1.378h3.845L6.092 8.82a.69.69 0 0 0 .973.974l7.084-7.092v3.849a.689.689 0 1 0 1.377 0V1.039a.689.689 0 0 0-.688-.689z" opacity=".6"/><path d="M12.244 7.207a.714.714 0 0 0-.714.715v6.43H1.538V4.35h6.424a.714.714 0 0 0 0-1.429H.824a.714.714 0 0 0-.714.715v11.432c0 .394.32.714.714.714h11.42c.394 0 .714-.32.714-.714V7.922a.714.714 0 0 0-.714-.715z" opacity=".6"/></g></symbol><symbol viewBox="0 0 20 20" id="icon-search" xmlns="http://www.w3.org/2000/svg"><path d="M7.917 14.167a6.257 6.257 0 0 1-6.25-6.25 6.257 6.257 0 0 1 6.25-6.25 6.257 6.257 0 0 1 6.25 6.25 6.257 6.257 0 0 1-6.25 6.25zm11.96 4.533l-5.809-5.81a7.876 7.876 0 0 0 1.765-4.973C15.833 3.55 12.282 0 7.917 0 3.55 0 0 3.551 0 7.917c0 4.365 3.551 7.916 7.917 7.916a7.876 7.876 0 0 0 4.973-1.765l5.81 5.81a.417.417 0 0 0 .589 0l.589-.59a.417.417 0 0 0 0-.588z" opacity=".4"/></symbol><symbol viewBox="0 0 20 20" id="icon-share-fb" xmlns="http://www.w3.org/2000/svg"><path d="M0 9.97C0 4.465 4.464 0 9.97 0c5.507 0 9.972 4.464 9.972 9.97 0 5.507-4.465 9.972-9.971 9.972C4.464 19.942 0 15.477 0 9.97zm10.862 5.843l.01-5.103h1.762a.313.313 0 0 0 .31-.276l.195-1.646a.313.313 0 0 0-.31-.35h-1.967V7.064c0-.625.174-1.05 1.069-1.05h.828c.173 0 .313-.14.313-.313V4.313A.313.313 0 0 0 12.759 4h-1.35C9.763 4 8.637 5.004 8.637 6.85v1.589H7.313A.313.313 0 0 0 7 8.753l.006 1.645c.001.172.14.312.313.312h1.326l-.009 5.103z"/></symbol><symbol viewBox="0 0 20 20" id="icon-share-ins" xmlns="http://www.w3.org/2000/svg"><path d="M15.338 5.857a1.197 1.197 0 0 0 1.199-1.198c0-.663-.536-1.198-1.199-1.198s-1.198.535-1.198 1.198c0 .663.535 1.198 1.198 1.198zM15.128 10a5.124 5.124 0 0 0-5.13-5.131A5.124 5.124 0 0 0 4.865 10a5.124 5.124 0 0 0 5.131 5.131A5.124 5.124 0 0 0 15.127 10zm4.806 4.128c-.078 1.6-.44 3.02-1.614 4.193-1.17 1.17-2.591 1.536-4.192 1.613C12.749 20.012 11.38 20 10 20c-1.379 0-2.747.013-4.128-.065-1.601-.077-3.02-.44-4.193-1.613C.51 17.15.143 15.729.066 14.128-.012 12.749 0 11.378 0 10c0-1.378-.013-2.747.065-4.128.077-1.6.44-3.02 1.613-4.193C2.85.51 4.271.143 5.872.066 7.251-.012 8.62 0 10 0c1.378 0 2.747-.013 4.128.065 1.6.077 3.019.44 4.192 1.613 1.171 1.171 1.536 2.592 1.614 4.193.077 1.379.065 2.747.065 4.128 0 1.38.015 2.75-.065 4.128zm-6.602-4.133a3.34 3.34 0 0 1-3.335 3.33 3.34 3.34 0 0 1-3.334-3.33 3.34 3.34 0 0 1 3.334-3.33 3.34 3.34 0 0 1 3.335 3.33z"/></symbol><symbol viewBox="0 0 20 18" id="icon-share-tg" xmlns="http://www.w3.org/2000/svg"><path d="M19.81.345c.204.28.248.67.112 1.002l-5.958 14.546a.87.87 0 0 1-.54.516.752.752 0 0 1-.693-.138l-3.132-2.485a.967.967 0 0 1-.16.277L6.442 17.7c-.234.284-.596.377-.915.234C5.208 17.79 5 17.44 5 17.052v-3.637c0-.338.158-.651.416-.82a.747.747 0 0 1 .834 0c.257.169.416.482.416.82v1.241l1.559-1.889a.916.916 0 0 1 .037-.042l-.115-.091c-.377-.3-.47-.89-.206-1.32.263-.429.783-.534 1.16-.234l3.77 2.992 4.803-11.726L2.867 6.542 5.93 8.857a.75.75 0 0 0 .88.03l4.604-3.044c.398-.263.908-.11 1.14.342.231.453.096 1.033-.302 1.296L7.65 10.525a2.249 2.249 0 0 1-2.642-.09L.372 6.93c-.275-.207-.416-.58-.36-.95.057-.37.3-.667.62-.758L18.966.028c.311-.088.64.035.844.317z"/></symbol><symbol viewBox="0 0 20 20" id="icon-share-tw" xmlns="http://www.w3.org/2000/svg"><path d="M10.547 8.518s-.554-1.932 1.16-2.789c1.713-.856 2.892.588 2.892.588s.3-.082.522-.164c.222-.082.545-.229.545-.229l-.528.943.813-.086s-.1.146-.426.445c-.325.298-.46.452-.46.452s.117 2.326-1.108 4.116c-1.225 1.79-2.808 2.865-5.108 3.092-2.299.226-3.796-.706-3.796-.706s1.005-.058 1.646-.302c.641-.245 1.563-.89 1.563-.89s-1.31-.404-1.781-.858c-.47-.453-.588-.722-.588-.722l1.293-.017s-1.36-.722-1.747-1.293c-.386-.572-.437-1.126-.437-1.126l.995.402S5.17 8.25 5.053 7.376c-.118-.874.151-1.344.151-1.344s.42.79 2.15 1.663c1.73.874 3.193.823 3.193.823zM10 20c5.523 0 10-4.477 10-10S15.523 0 10 0 0 4.477 0 10s4.477 10 10 10z"/></symbol><symbol viewBox="0 0 13 11" id="icon-tg-mono" xmlns="http://www.w3.org/2000/svg"><path d="M5.152 7.255l-.2 2.738c.286 0 .41-.12.558-.263l1.34-1.248 2.774 1.982c.509.276.867.13 1.005-.457l1.82-8.324h.001c.162-.734-.272-1.021-.767-.841L.977 4.84c-.73.276-.72.673-.124.853l2.737.83 6.357-3.88c.3-.192.571-.085.348.108z"/></symbol><symbol viewBox="0 0 17 14" id="icon-twitter" xmlns="http://www.w3.org/2000/svg"><path d="M16.531.259a6.905 6.905 0 0 1-2.216.856A3.458 3.458 0 0 0 11.769 0C9.845 0 8.283 1.583 8.283 3.534c0 .277.03.546.09.805C5.474 4.19 2.905 2.786 1.183.645a3.566 3.566 0 0 0-.472 1.779c0 1.225.616 2.307 1.552 2.941a3.455 3.455 0 0 1-1.58-.44v.043c0 1.713 1.202 3.142 2.798 3.465a3.437 3.437 0 0 1-1.575.062c.444 1.404 1.731 2.426 3.258 2.453A6.938 6.938 0 0 1 0 12.413 9.791 9.791 0 0 0 5.347 14c6.415 0 9.923-5.385 9.923-10.055 0-.154-.003-.308-.009-.458A7.106 7.106 0 0 0 17 1.657a6.893 6.893 0 0 1-2.003.557A3.534 3.534 0 0 0 16.531.259"/></symbol><symbol viewBox="0 0 18 13" id="icon-youtube" xmlns="http://www.w3.org/2000/svg"><g opacity=".4"><path d="M17.624 2.03A2.291 2.291 0 0 0 16.032.388C14.63 0 9 0 9 0S3.371 0 1.968.388A2.291 2.291 0 0 0 .376 2.03C0 3.478 0 6.5 0 6.5s0 3.022.376 4.47a2.29 2.29 0 0 0 1.592 1.642C3.37 13 9 13 9 13s5.629 0 7.032-.388a2.291 2.291 0 0 0 1.592-1.642C18 9.522 18 6.5 18 6.5s0-3.022-.376-4.47" opacity=".4"/><path d="M7 9V4l4 2.5z" opacity=".4"/></g></symbol></svg>